<svg width="61" height="50" viewBox="0 0 61 50" fill="none" xmlns="http://www.w3.org/2000/svg">
<g id="Frame 3">
<g id="Action bar icons">
<g id="Icon">
<path id="Vector" fill-rule="evenodd" clip-rule="evenodd" d="M37.5 12.5C37.5 16.366 34.366 19.5 30.5 19.5C26.634 19.5 23.5 16.366 23.5 12.5C23.5 8.63401 26.634 5.5 30.5 5.5C34.366 5.5 37.5 8.63401 37.5 12.5ZM39.5 12.5C39.5 17.4706 35.4706 21.5 30.5 21.5C25.5294 21.5 21.5 17.4706 21.5 12.5C21.5 7.52944 25.5294 3.5 30.5 3.5C35.4706 3.5 39.5 7.52944 39.5 12.5ZM29.5 10.5C29.5 9.94772 29.9477 9.5 30.5 9.5C31.0523 9.5 31.5 9.94772 31.5 10.5V11.5H32.5C33.0523 11.5 33.5 11.9477 33.5 12.5C33.5 13.0523 33.0523 13.5 32.5 13.5H31.5V14.5C31.5 15.0523 31.0523 15.5 30.5 15.5C29.9477 15.5 29.5 15.0523 29.5 14.5V13.5H28.5C27.9477 13.5 27.5 13.0523 27.5 12.5C27.5 11.9477 27.9477 11.5 28.5 11.5H29.5V10.5Z" fill="#C9C9C9"/>
</g>
</g>
<path id="Nouveau" d="M9.40128 36.3182V46.5H7.5419L3.11222 40.0916H3.03764V46.5H0.884943V36.3182H2.77415L7.16903 42.7216H7.25852V36.3182H9.40128ZM14.5904 46.6491C13.8181 46.6491 13.1503 46.4851 12.5868 46.157C12.0267 45.8255 11.5942 45.3648 11.2892 44.7749C10.9843 44.1816 10.8319 43.4938 10.8319 42.7116C10.8319 41.9228 10.9843 41.2334 11.2892 40.6435C11.5942 40.0502 12.0267 39.5895 12.5868 39.2614C13.1503 38.9299 13.8181 38.7642 14.5904 38.7642C15.3626 38.7642 16.0288 38.9299 16.589 39.2614C17.1524 39.5895 17.5866 40.0502 17.8915 40.6435C18.1964 41.2334 18.3489 41.9228 18.3489 42.7116C18.3489 43.4938 18.1964 44.1816 17.8915 44.7749C17.5866 45.3648 17.1524 45.8255 16.589 46.157C16.0288 46.4851 15.3626 46.6491 14.5904 46.6491ZM14.6003 45.0085C14.9516 45.0085 15.245 44.9091 15.4803 44.7102C15.7156 44.508 15.8929 44.233 16.0123 43.8849C16.1349 43.5369 16.1962 43.1409 16.1962 42.6967C16.1962 42.2526 16.1349 41.8565 16.0123 41.5085C15.8929 41.1605 15.7156 40.8854 15.4803 40.6832C15.245 40.4811 14.9516 40.38 14.6003 40.38C14.2457 40.38 13.9474 40.4811 13.7054 40.6832C13.4668 40.8854 13.2862 41.1605 13.1635 41.5085C13.0442 41.8565 12.9846 42.2526 12.9846 42.6967C12.9846 43.1409 13.0442 43.5369 13.1635 43.8849C13.2862 44.233 13.4668 44.508 13.7054 44.7102C13.9474 44.9091 14.2457 45.0085 14.6003 45.0085ZM24.623 43.2486V38.8636H26.7409V46.5H24.7076V45.1129H24.628C24.4557 45.5604 24.169 45.92 23.7679 46.1918C23.3702 46.4635 22.8846 46.5994 22.3113 46.5994C21.8008 46.5994 21.3517 46.4834 20.964 46.2514C20.5762 46.0194 20.2729 45.6896 20.0542 45.2621C19.8387 44.8345 19.7293 44.3224 19.726 43.7259V38.8636H21.8439V43.348C21.8472 43.7988 21.9682 44.1551 22.2069 44.4169C22.4455 44.6787 22.7653 44.8097 23.1664 44.8097C23.4216 44.8097 23.6602 44.7517 23.8823 44.6357C24.1043 44.5163 24.2833 44.3407 24.4192 44.1087C24.5584 43.8767 24.6264 43.59 24.623 43.2486ZM35.5543 38.8636L32.8846 46.5H30.4982L27.8285 38.8636H30.0657L31.6516 44.3274H31.7312L33.3121 38.8636H35.5543ZM39.8722 46.6491C39.0866 46.6491 38.4105 46.4901 37.8438 46.1719C37.2803 45.8504 36.8461 45.3963 36.5412 44.8097C36.2363 44.2197 36.0838 43.522 36.0838 42.7166C36.0838 41.9311 36.2363 41.2417 36.5412 40.6484C36.8461 40.0552 37.2753 39.5928 37.8288 39.2614C38.3857 38.9299 39.0386 38.7642 39.7876 38.7642C40.2914 38.7642 40.7604 38.8454 41.1946 39.0078C41.6321 39.1669 42.0133 39.4072 42.3381 39.7287C42.6662 40.0502 42.9214 40.4545 43.1037 40.9418C43.286 41.4257 43.3771 41.9924 43.3771 42.642V43.2237H36.929V41.9112H41.3835C41.3835 41.6063 41.3172 41.3362 41.1847 41.1009C41.0521 40.8655 40.8681 40.6816 40.6328 40.549C40.4008 40.4131 40.1307 40.3452 39.8224 40.3452C39.5009 40.3452 39.2159 40.4197 38.9673 40.5689C38.7221 40.7147 38.5298 40.9119 38.3906 41.1605C38.2514 41.4058 38.1802 41.6792 38.1768 41.9808V43.2287C38.1768 43.6065 38.2464 43.933 38.3857 44.2081C38.5282 44.4832 38.7287 44.6953 38.9872 44.8445C39.2457 44.9936 39.5523 45.0682 39.907 45.0682C40.1423 45.0682 40.3577 45.035 40.5533 44.9688C40.7488 44.9025 40.9162 44.803 41.0554 44.6705C41.1946 44.5379 41.3007 44.3755 41.3736 44.1832L43.3324 44.3125C43.233 44.7831 43.0291 45.1941 42.7209 45.5455C42.416 45.8935 42.0215 46.1652 41.5376 46.3608C41.0571 46.553 40.5019 46.6491 39.8722 46.6491ZM46.9368 46.6442C46.4496 46.6442 46.0154 46.5597 45.6342 46.3906C45.2531 46.2183 44.9515 45.9647 44.7294 45.63C44.5107 45.2919 44.4013 44.871 44.4013 44.3672C44.4013 43.9429 44.4792 43.5866 44.6349 43.2983C44.7907 43.0099 45.0028 42.7779 45.2713 42.6023C45.5398 42.4266 45.8447 42.294 46.1861 42.2045C46.5308 42.1151 46.892 42.0521 47.2699 42.0156C47.714 41.9692 48.072 41.9261 48.3438 41.8864C48.6155 41.8433 48.8127 41.7803 48.9354 41.6974C49.058 41.6146 49.1193 41.492 49.1193 41.3295V41.2997C49.1193 40.9848 49.0199 40.7412 48.821 40.5689C48.6255 40.3965 48.3471 40.3104 47.9858 40.3104C47.6046 40.3104 47.3014 40.3949 47.076 40.5639C46.8506 40.7296 46.7015 40.9384 46.6286 41.1903L44.6697 41.0312C44.7692 40.5672 44.9647 40.1662 45.2564 39.8281C45.5481 39.4867 45.9242 39.2249 46.3849 39.0426C46.849 38.857 47.3859 38.7642 47.9957 38.7642C48.42 38.7642 48.826 38.8139 49.2138 38.9134C49.6049 39.0128 49.9512 39.1669 50.2528 39.3757C50.5578 39.5845 50.7981 39.853 50.9737 40.1811C51.1494 40.5059 51.2372 40.8954 51.2372 41.3494V46.5H49.2287V45.4411H49.169C49.0464 45.6797 48.8823 45.8902 48.6768 46.0724C48.4714 46.2514 48.2244 46.3923 47.9361 46.495C47.6477 46.5945 47.3146 46.6442 46.9368 46.6442ZM47.5433 45.1825C47.8549 45.1825 48.13 45.1212 48.3686 44.9986C48.6072 44.8726 48.7945 44.7036 48.9304 44.4915C49.0663 44.2794 49.1342 44.0391 49.1342 43.7706V42.9602C49.0679 43.0033 48.9768 43.0431 48.8608 43.0795C48.7481 43.1127 48.6205 43.1442 48.478 43.174C48.3355 43.2005 48.1929 43.2254 48.0504 43.2486C47.9079 43.2685 47.7786 43.2867 47.6626 43.3033C47.4141 43.3397 47.197 43.3977 47.0114 43.4773C46.8258 43.5568 46.6816 43.6645 46.5788 43.8004C46.4761 43.933 46.4247 44.0987 46.4247 44.2976C46.4247 44.5859 46.5291 44.8063 46.7379 44.9588C46.95 45.108 47.2185 45.1825 47.5433 45.1825ZM57.7773 43.2486V38.8636H59.8952V46.5H57.8619V45.1129H57.7823C57.61 45.5604 57.3233 45.92 56.9222 46.1918C56.5245 46.4635 56.0389 46.5994 55.4656 46.5994C54.9551 46.5994 54.506 46.4834 54.1183 46.2514C53.7305 46.0194 53.4272 45.6896 53.2085 45.2621C52.993 44.8345 52.8836 44.3224 52.8803 43.7259V38.8636H54.9982V43.348C55.0015 43.7988 55.1225 44.1551 55.3612 44.4169C55.5998 44.6787 55.9196 44.8097 56.3207 44.8097C56.5759 44.8097 56.8145 44.7517 57.0366 44.6357C57.2586 44.5163 57.4376 44.3407 57.5735 44.1087C57.7127 43.8767 57.7807 43.59 57.7773 43.2486Z" fill="#C9C9C9"/>
</g>
</svg>
