<svg width="33" height="50" viewBox="0 0 33 50" fill="none" xmlns="http://www.w3.org/2000/svg">
<g id="Frame 6">
<g id="mdi:chat">
<path id="Vector" d="M16.5 3.5C22 3.5 26.5 7.08 26.5 11.5C26.5 15.92 22 19.5 16.5 19.5C15.26 19.5 14.07 19.32 12.97 19C10.05 21.5 6.5 21.5 6.5 21.5C8.83 19.17 9.2 17.6 9.25 17C7.55 15.57 6.5 13.63 6.5 11.5C6.5 7.08 11 3.5 16.5 3.5Z" fill="#C9C9C9"/>
</g>
<path id="Coach" d="M9.86861 39.8828H7.69105C7.65128 39.6011 7.57008 39.3509 7.44744 39.1321C7.32481 38.91 7.16738 38.7211 6.97514 38.5653C6.78291 38.4096 6.56084 38.2902 6.30895 38.2074C6.06037 38.1245 5.79025 38.0831 5.49858 38.0831C4.97159 38.0831 4.51255 38.214 4.12145 38.4759C3.73035 38.7344 3.42708 39.1122 3.21165 39.6094C2.99621 40.1032 2.88849 40.7031 2.88849 41.4091C2.88849 42.1349 2.99621 42.7448 3.21165 43.2386C3.4304 43.7325 3.73532 44.1054 4.12642 44.3572C4.51752 44.6091 4.96993 44.7351 5.48366 44.7351C5.77202 44.7351 6.03883 44.697 6.28409 44.6207C6.53267 44.5445 6.75308 44.4335 6.94531 44.2876C7.13755 44.1385 7.29664 43.9579 7.42259 43.7457C7.55185 43.5336 7.64134 43.2917 7.69105 43.0199L9.86861 43.0298C9.81226 43.4972 9.6714 43.9479 9.44602 44.3821C9.22396 44.813 8.92401 45.1991 8.54617 45.5405C8.17164 45.8786 7.7242 46.147 7.20384 46.3459C6.68679 46.5414 6.1018 46.6392 5.44886 46.6392C4.54072 46.6392 3.72869 46.4337 3.01278 46.0227C2.30019 45.6117 1.73674 45.0168 1.32244 44.2379C0.911458 43.459 0.705966 42.5161 0.705966 41.4091C0.705966 40.2988 0.914773 39.3542 1.33239 38.5753C1.75 37.7964 2.31676 37.2031 3.03267 36.7955C3.74858 36.3845 4.55398 36.179 5.44886 36.179C6.03883 36.179 6.5857 36.2618 7.08949 36.4276C7.59659 36.5933 8.04569 36.8352 8.43679 37.1534C8.82789 37.4683 9.14607 37.8544 9.39134 38.3118C9.63991 38.7692 9.79901 39.2929 9.86861 39.8828ZM13.4904 42.0852V46.5H11.3725V36.3182H13.4308V40.2109H13.5202C13.6926 39.7602 13.971 39.4072 14.3555 39.152C14.7399 38.8935 15.2222 38.7642 15.8022 38.7642C16.3325 38.7642 16.7949 38.8802 17.1893 39.1122C17.587 39.3409 17.8952 39.6707 18.114 40.1016C18.3361 40.5291 18.4454 41.0412 18.4421 41.6378V46.5H16.3242V42.0156C16.3275 41.545 16.2082 41.1787 15.9663 40.9169C15.7276 40.6551 15.3929 40.5241 14.962 40.5241C14.6737 40.5241 14.4184 40.5855 14.1964 40.7081C13.9776 40.8307 13.8053 41.0097 13.6793 41.245C13.5567 41.477 13.4937 41.7571 13.4904 42.0852ZM22.2864 46.6442C21.7992 46.6442 21.365 46.5597 20.9838 46.3906C20.6027 46.2183 20.3011 45.9647 20.079 45.63C19.8603 45.2919 19.7509 44.871 19.7509 44.3672C19.7509 43.9429 19.8288 43.5866 19.9846 43.2983C20.1403 43.0099 20.3525 42.7779 20.6209 42.6023C20.8894 42.4266 21.1943 42.294 21.5357 42.2045C21.8804 42.1151 22.2417 42.0521 22.6195 42.0156C23.0636 41.9692 23.4216 41.9261 23.6934 41.8864C23.9651 41.8433 24.1623 41.7803 24.285 41.6974C24.4076 41.6146 24.4689 41.492 24.4689 41.3295V41.2997C24.4689 40.9848 24.3695 40.7412 24.1706 40.5689C23.9751 40.3965 23.6967 40.3104 23.3354 40.3104C22.9542 40.3104 22.651 40.3949 22.4256 40.5639C22.2002 40.7296 22.0511 40.9384 21.9782 41.1903L20.0194 41.0312C20.1188 40.5672 20.3143 40.1662 20.606 39.8281C20.8977 39.4867 21.2739 39.2249 21.7346 39.0426C22.1986 38.857 22.7355 38.7642 23.3453 38.7642C23.7696 38.7642 24.1756 38.8139 24.5634 38.9134C24.9545 39.0128 25.3008 39.1669 25.6025 39.3757C25.9074 39.5845 26.1477 39.853 26.3233 40.1811C26.499 40.5059 26.5868 40.8954 26.5868 41.3494V46.5H24.5783V45.4411H24.5186C24.396 45.6797 24.2319 45.8902 24.0265 46.0724C23.821 46.2514 23.574 46.3923 23.2857 46.495C22.9973 46.5945 22.6642 46.6442 22.2864 46.6442ZM22.8929 45.1825C23.2045 45.1825 23.4796 45.1212 23.7182 44.9986C23.9569 44.8726 24.1441 44.7036 24.28 44.4915C24.4159 44.2794 24.4838 44.0391 24.4838 43.7706V42.9602C24.4176 43.0033 24.3264 43.0431 24.2104 43.0795C24.0977 43.1127 23.9701 43.1442 23.8276 43.174C23.6851 43.2005 23.5426 43.2254 23.4 43.2486C23.2575 43.2685 23.1283 43.2867 23.0123 43.3033C22.7637 43.3397 22.5466 43.3977 22.361 43.4773C22.1754 43.5568 22.0312 43.6645 21.9284 43.8004C21.8257 43.933 21.7743 44.0987 21.7743 44.2976C21.7743 44.5859 21.8787 44.8063 22.0875 44.9588C22.2997 45.108 22.5681 45.1825 22.8929 45.1825ZM32.2917 38.8636V40.4545H27.693V38.8636H32.2917ZM28.737 37.0341H30.8549V44.1534C30.8549 44.349 30.8848 44.5014 30.9444 44.6108C31.0041 44.7169 31.0869 44.7914 31.193 44.8345C31.3024 44.8776 31.4283 44.8991 31.5708 44.8991C31.6703 44.8991 31.7697 44.8909 31.8691 44.8743C31.9686 44.8544 32.0448 44.8395 32.0978 44.8295L32.4309 46.4055C32.3249 46.4387 32.1757 46.4768 31.9835 46.5199C31.7913 46.5663 31.5576 46.5945 31.2825 46.6044C30.7721 46.6243 30.3246 46.5563 29.9402 46.4006C29.559 46.2448 29.2624 46.0028 29.0502 45.6747C28.8381 45.3466 28.7337 44.9323 28.737 44.4318V37.0341Z" fill="#C9C9C9"/>
</g>
</svg>
