<svg width="60" height="50" viewBox="0 0 60 50" fill="none" xmlns="http://www.w3.org/2000/svg">
<g id="Frame 4">
<g id="Action bar icons">
<g id="Icon">
<path id="Vector" fill-rule="evenodd" clip-rule="evenodd" d="M24.1353 7.58632C24.0649 7.66929 24 7.81238 24 8V17C24 17.1876 24.0649 17.3307 24.1353 17.4137C24.2039 17.4945 24.256 17.5 24.2727 17.5H35.7273C35.744 17.5 35.7961 17.4945 35.8647 17.4137C35.9351 17.3307 36 17.1876 36 17V8C36 7.81238 35.9351 7.66929 35.8647 7.58632C35.7961 7.50548 35.744 7.5 35.7273 7.5H34.0625V9.5C34.0625 10.0523 33.6148 10.5 33.0625 10.5C32.5102 10.5 32.0625 10.0523 32.0625 9.5V7.5H27.5V9.5C27.5 10.0523 27.0523 10.5 26.5 10.5C25.9477 10.5 25.5 10.0523 25.5 9.5V7.5H24.2727C24.256 7.5 24.2039 7.50548 24.1353 7.58632ZM22 8C22 6.77963 22.8698 5.5 24.2727 5.5H26.5H33.0625H35.7273C37.1302 5.5 38 6.77963 38 8V17C38 18.2204 37.1302 19.5 35.7273 19.5H24.2727C22.8698 19.5 22 18.2204 22 17V8Z" fill="#C9C9C9"/>
</g>
</g>
<path id="Planning" d="M0.884943 46.5V36.3182H4.90199C5.67424 36.3182 6.33215 36.4657 6.87571 36.7607C7.41927 37.0523 7.83357 37.4583 8.11861 37.9787C8.40696 38.4957 8.55114 39.0923 8.55114 39.7685C8.55114 40.4446 8.4053 41.0412 8.11364 41.5582C7.82197 42.0753 7.39938 42.478 6.84588 42.7663C6.29569 43.0547 5.6295 43.1989 4.8473 43.1989H2.28693V41.4737H4.49929C4.91359 41.4737 5.25497 41.4025 5.52344 41.2599C5.79522 41.1141 5.9974 40.9136 6.12997 40.6584C6.26586 40.3999 6.33381 40.1032 6.33381 39.7685C6.33381 39.4304 6.26586 39.1354 6.12997 38.8835C5.9974 38.6283 5.79522 38.4311 5.52344 38.2919C5.25166 38.1494 4.90696 38.0781 4.48935 38.0781H3.03764V46.5H0.884943ZM12.0275 36.3182V46.5H9.90962V36.3182H12.0275ZM15.9016 46.6442C15.4144 46.6442 14.9802 46.5597 14.5991 46.3906C14.2179 46.2183 13.9163 45.9647 13.6942 45.63C13.4755 45.2919 13.3661 44.871 13.3661 44.3672C13.3661 43.9429 13.444 43.5866 13.5998 43.2983C13.7556 43.0099 13.9677 42.7779 14.2362 42.6023C14.5046 42.4266 14.8095 42.294 15.1509 42.2045C15.4956 42.1151 15.8569 42.0521 16.2347 42.0156C16.6789 41.9692 17.0368 41.9261 17.3086 41.8864C17.5804 41.8433 17.7776 41.7803 17.9002 41.6974C18.0228 41.6146 18.0842 41.492 18.0842 41.3295V41.2997C18.0842 40.9848 17.9847 40.7412 17.7859 40.5689C17.5903 40.3965 17.3119 40.3104 16.9506 40.3104C16.5695 40.3104 16.2662 40.3949 16.0408 40.5639C15.8155 40.7296 15.6663 40.9384 15.5934 41.1903L13.6346 41.0312C13.734 40.5672 13.9296 40.1662 14.2212 39.8281C14.5129 39.4867 14.8891 39.2249 15.3498 39.0426C15.8138 38.857 16.3507 38.7642 16.9606 38.7642C17.3848 38.7642 17.7908 38.8139 18.1786 38.9134C18.5697 39.0128 18.9161 39.1669 19.2177 39.3757C19.5226 39.5845 19.7629 39.853 19.9386 40.1811C20.1142 40.5059 20.2021 40.8954 20.2021 41.3494V46.5H18.1935V45.4411H18.1339C18.0112 45.6797 17.8472 45.8902 17.6417 46.0724C17.4362 46.2514 17.1893 46.3923 16.9009 46.495C16.6126 46.5945 16.2795 46.6442 15.9016 46.6442ZM16.5082 45.1825C16.8197 45.1825 17.0948 45.1212 17.3335 44.9986C17.5721 44.8726 17.7594 44.7036 17.8952 44.4915C18.0311 44.2794 18.0991 44.0391 18.0991 43.7706V42.9602C18.0328 43.0033 17.9416 43.0431 17.8256 43.0795C17.713 43.1127 17.5853 43.1442 17.4428 43.174C17.3003 43.2005 17.1578 43.2254 17.0153 43.2486C16.8728 43.2685 16.7435 43.2867 16.6275 43.3033C16.3789 43.3397 16.1618 43.3977 15.9762 43.4773C15.7906 43.5568 15.6464 43.6645 15.5437 43.8004C15.4409 43.933 15.3896 44.0987 15.3896 44.2976C15.3896 44.5859 15.494 44.8063 15.7028 44.9588C15.9149 45.108 16.1834 45.1825 16.5082 45.1825ZM23.9631 42.0852V46.5H21.8452V38.8636H23.8636V40.2109H23.9531C24.1222 39.7668 24.4055 39.4155 24.8033 39.157C25.201 38.8951 25.6832 38.7642 26.25 38.7642C26.7803 38.7642 27.2427 38.8802 27.6371 39.1122C28.0315 39.3442 28.3381 39.6757 28.5568 40.1065C28.7756 40.5341 28.8849 41.0445 28.8849 41.6378V46.5H26.767V42.0156C26.7704 41.5483 26.651 41.1837 26.4091 40.9219C26.1671 40.6567 25.834 40.5241 25.4098 40.5241C25.1248 40.5241 24.8729 40.5855 24.6541 40.7081C24.4387 40.8307 24.2696 41.0097 24.147 41.245C24.0277 41.477 23.9664 41.7571 23.9631 42.0852ZM32.6721 42.0852V46.5H30.5542V38.8636H32.5726V40.2109H32.6621C32.8311 39.7668 33.1145 39.4155 33.5123 39.157C33.91 38.8951 34.3922 38.7642 34.959 38.7642C35.4893 38.7642 35.9516 38.8802 36.3461 39.1122C36.7405 39.3442 37.0471 39.6757 37.2658 40.1065C37.4846 40.5341 37.5939 41.0445 37.5939 41.6378V46.5H35.476V42.0156C35.4793 41.5483 35.36 41.1837 35.1181 40.9219C34.8761 40.6567 34.543 40.5241 34.1188 40.5241C33.8337 40.5241 33.5819 40.5855 33.3631 40.7081C33.1477 40.8307 32.9786 41.0097 32.856 41.245C32.7367 41.477 32.6754 41.7571 32.6721 42.0852ZM39.2631 46.5V38.8636H41.381V46.5H39.2631ZM40.3271 37.8793C40.0122 37.8793 39.7421 37.7749 39.5167 37.5661C39.2946 37.3539 39.1836 37.1004 39.1836 36.8054C39.1836 36.5137 39.2946 36.2635 39.5167 36.0547C39.7421 35.8426 40.0122 35.7365 40.3271 35.7365C40.6419 35.7365 40.9104 35.8426 41.1325 36.0547C41.3578 36.2635 41.4705 36.5137 41.4705 36.8054C41.4705 37.1004 41.3578 37.3539 41.1325 37.5661C40.9104 37.7749 40.6419 37.8793 40.3271 37.8793ZM45.1955 42.0852V46.5H43.0776V38.8636H45.0961V40.2109H45.1855C45.3546 39.7668 45.638 39.4155 46.0357 39.157C46.4334 38.8951 46.9157 38.7642 47.4824 38.7642C48.0127 38.7642 48.4751 38.8802 48.8695 39.1122C49.2639 39.3442 49.5705 39.6757 49.7892 40.1065C50.008 40.5341 50.1174 41.0445 50.1174 41.6378V46.5H47.9995V42.0156C48.0028 41.5483 47.8835 41.1837 47.6415 40.9219C47.3996 40.6567 47.0665 40.5241 46.6422 40.5241C46.3572 40.5241 46.1053 40.5855 45.8865 40.7081C45.6711 40.8307 45.5021 41.0097 45.3794 41.245C45.2601 41.477 45.1988 41.7571 45.1955 42.0852ZM55.2269 49.5227C54.5408 49.5227 53.9525 49.4283 53.462 49.2393C52.9748 49.0537 52.587 48.8002 52.2987 48.4787C52.0103 48.1572 51.823 47.7959 51.7369 47.3949L53.6957 47.1314C53.7553 47.2839 53.8498 47.4264 53.979 47.5589C54.1083 47.6915 54.279 47.7976 54.4911 47.8771C54.7066 47.96 54.9684 48.0014 55.2766 48.0014C55.7373 48.0014 56.1168 47.8887 56.4151 47.6634C56.7167 47.4413 56.8675 47.0684 56.8675 46.5447V45.1477H56.7781C56.6853 45.3598 56.546 45.5604 56.3604 45.7493C56.1748 45.9382 55.9362 46.0923 55.6445 46.2116C55.3529 46.331 55.0049 46.3906 54.6005 46.3906C54.0271 46.3906 53.5051 46.258 53.0344 45.9929C52.5671 45.7244 52.1942 45.3151 51.9158 44.7649C51.6407 44.2114 51.5032 43.5121 51.5032 42.6669C51.5032 41.8018 51.6441 41.0793 51.9258 40.4993C52.2075 39.9193 52.582 39.4851 53.0494 39.1967C53.52 38.9084 54.0354 38.7642 54.5955 38.7642C55.0231 38.7642 55.381 38.8371 55.6694 38.983C55.9577 39.1255 56.1897 39.3045 56.3654 39.5199C56.5444 39.732 56.6819 39.9408 56.7781 40.1463H56.8576V38.8636H58.9606V46.5746C58.9606 47.2242 58.8015 47.7678 58.4833 48.2053C58.1651 48.6428 57.7243 48.9709 57.1609 49.1896C56.6007 49.4117 55.9561 49.5227 55.2269 49.5227ZM55.2717 44.7997C55.613 44.7997 55.9014 44.7152 56.1367 44.5462C56.3754 44.3738 56.5576 44.1286 56.6836 43.8104C56.8129 43.4889 56.8775 43.1044 56.8775 42.657C56.8775 42.2095 56.8145 41.8217 56.6886 41.4936C56.5626 41.1622 56.3803 40.9053 56.1417 40.723C55.9031 40.5407 55.613 40.4496 55.2717 40.4496C54.9237 40.4496 54.6303 40.544 54.3917 40.733C54.1531 40.9186 53.9724 41.1771 53.8498 41.5085C53.7272 41.84 53.6658 42.2228 53.6658 42.657C53.6658 43.0978 53.7272 43.4789 53.8498 43.8004C53.9757 44.1186 54.1564 44.3655 54.3917 44.5412C54.6303 44.7135 54.9237 44.7997 55.2717 44.7997Z" fill="#C9C9C9"/>
</g>
</svg>
