<svg width="37" height="50" viewBox="0 0 37 50" fill="none" xmlns="http://www.w3.org/2000/svg">
<g id="Frame 5">
<g id="Action bar icons">
<g id="Group">
<path id="Vector (Stroke)" fill-rule="evenodd" clip-rule="evenodd" d="M14.5 15.25C13.638 15.25 12.8114 15.5924 12.2019 16.2019C11.5924 16.8114 11.25 17.638 11.25 18.5C11.25 18.8315 11.3817 19.1495 11.6161 19.3839C11.8505 19.6183 12.1685 19.75 12.5 19.75H24.5C24.8315 19.75 25.1495 19.6183 25.3839 19.3839C25.6183 19.1495 25.75 18.8315 25.75 18.5C25.75 17.638 25.4076 16.8114 24.7981 16.2019C24.1886 15.5924 23.362 15.25 22.5 15.25H14.5ZM11.1412 15.1412C12.032 14.2504 13.2402 13.75 14.5 13.75H22.5C23.7598 13.75 24.968 14.2504 25.8588 15.1412C26.7496 16.032 27.25 17.2402 27.25 18.5C27.25 19.2293 26.9603 19.9288 26.4445 20.4445C25.9288 20.9603 25.2293 21.25 24.5 21.25H12.5C11.7707 21.25 11.0712 20.9603 10.5555 20.4445C10.0397 19.9288 9.75 19.2293 9.75 18.5C9.75 17.2402 10.2504 16.032 11.1412 15.1412Z" fill="#C9C9C9"/>
<path id="Vector (Stroke)_2" fill-rule="evenodd" clip-rule="evenodd" d="M18.5 5.25C17.2574 5.25 16.25 6.25736 16.25 7.5C16.25 8.74264 17.2574 9.75 18.5 9.75C19.7426 9.75 20.75 8.74264 20.75 7.5C20.75 6.25736 19.7426 5.25 18.5 5.25ZM14.75 7.5C14.75 5.42893 16.4289 3.75 18.5 3.75C20.5711 3.75 22.25 5.42893 22.25 7.5C22.25 9.57107 20.5711 11.25 18.5 11.25C16.4289 11.25 14.75 9.57107 14.75 7.5Z" fill="#C9C9C9"/>
</g>
</g>
<path id="Profil" d="M0.884943 46.5V36.3182H4.90199C5.67424 36.3182 6.33215 36.4657 6.87571 36.7607C7.41927 37.0523 7.83357 37.4583 8.11861 37.9787C8.40696 38.4957 8.55114 39.0923 8.55114 39.7685C8.55114 40.4446 8.4053 41.0412 8.11364 41.5582C7.82197 42.0753 7.39938 42.478 6.84588 42.7663C6.29569 43.0547 5.6295 43.1989 4.8473 43.1989H2.28693V41.4737H4.49929C4.91359 41.4737 5.25497 41.4025 5.52344 41.2599C5.79522 41.1141 5.9974 40.9136 6.12997 40.6584C6.26586 40.3999 6.33381 40.1032 6.33381 39.7685C6.33381 39.4304 6.26586 39.1354 6.12997 38.8835C5.9974 38.6283 5.79522 38.4311 5.52344 38.2919C5.25166 38.1494 4.90696 38.0781 4.48935 38.0781H3.03764V46.5H0.884943ZM9.90962 46.5V38.8636H11.9629V40.196H12.0424C12.1816 39.7221 12.4153 39.3641 12.7434 39.1222C13.0716 38.8769 13.4494 38.7543 13.877 38.7543C13.983 38.7543 14.0974 38.7609 14.22 38.7741C14.3426 38.7874 14.4503 38.8056 14.5431 38.8288V40.7081C14.4437 40.6783 14.3062 40.6518 14.1305 40.6286C13.9548 40.6054 13.7941 40.5938 13.6483 40.5938C13.3367 40.5938 13.0583 40.6617 12.813 40.7976C12.5711 40.9302 12.3788 41.1158 12.2363 41.3544C12.0971 41.593 12.0275 41.8681 12.0275 42.1797V46.5H9.90962ZM18.733 46.6491C17.9607 46.6491 17.2929 46.4851 16.7294 46.157C16.1693 45.8255 15.7367 45.3648 15.4318 44.7749C15.1269 44.1816 14.9744 43.4938 14.9744 42.7116C14.9744 41.9228 15.1269 41.2334 15.4318 40.6435C15.7367 40.0502 16.1693 39.5895 16.7294 39.2614C17.2929 38.9299 17.9607 38.7642 18.733 38.7642C19.5052 38.7642 20.1714 38.9299 20.7315 39.2614C21.295 39.5895 21.7292 40.0502 22.0341 40.6435C22.339 41.2334 22.4915 41.9228 22.4915 42.7116C22.4915 43.4938 22.339 44.1816 22.0341 44.7749C21.7292 45.3648 21.295 45.8255 20.7315 46.157C20.1714 46.4851 19.5052 46.6491 18.733 46.6491ZM18.7429 45.0085C19.0942 45.0085 19.3875 44.9091 19.6229 44.7102C19.8582 44.508 20.0355 44.233 20.1548 43.8849C20.2775 43.5369 20.3388 43.1409 20.3388 42.6967C20.3388 42.2526 20.2775 41.8565 20.1548 41.5085C20.0355 41.1605 19.8582 40.8854 19.6229 40.6832C19.3875 40.4811 19.0942 40.38 18.7429 40.38C18.3883 40.38 18.09 40.4811 17.848 40.6832C17.6094 40.8854 17.4287 41.1605 17.3061 41.5085C17.1868 41.8565 17.1271 42.2526 17.1271 42.6967C17.1271 43.1409 17.1868 43.5369 17.3061 43.8849C17.4287 44.233 17.6094 44.508 17.848 44.7102C18.09 44.9091 18.3883 45.0085 18.7429 45.0085ZM27.9751 38.8636V40.4545H23.2621V38.8636H27.9751ZM24.3409 46.5V38.3118C24.3409 37.7583 24.4486 37.2992 24.6641 36.9347C24.8828 36.5701 25.1811 36.2966 25.5589 36.1143C25.9368 35.9321 26.366 35.8409 26.8466 35.8409C27.1714 35.8409 27.468 35.8658 27.7365 35.9155C28.0083 35.9652 28.2105 36.0099 28.343 36.0497L27.9652 37.6406C27.8823 37.6141 27.7796 37.5893 27.657 37.5661C27.5376 37.5429 27.415 37.5312 27.2891 37.5312C26.9775 37.5312 26.7604 37.6042 26.6378 37.75C26.5152 37.8925 26.4538 38.093 26.4538 38.3516V46.5H24.3409ZM29.269 46.5V38.8636H31.3869V46.5H29.269ZM30.3329 37.8793C30.0181 37.8793 29.7479 37.7749 29.5225 37.5661C29.3005 37.3539 29.1895 37.1004 29.1895 36.8054C29.1895 36.5137 29.3005 36.2635 29.5225 36.0547C29.7479 35.8426 30.0181 35.7365 30.3329 35.7365C30.6478 35.7365 30.9163 35.8426 31.1383 36.0547C31.3637 36.2635 31.4764 36.5137 31.4764 36.8054C31.4764 37.1004 31.3637 37.3539 31.1383 37.5661C30.9163 37.7749 30.6478 37.8793 30.3329 37.8793ZM35.2013 36.3182V46.5H33.0835V36.3182H35.2013Z" fill="#C9C9C9"/>
</g>
</svg>
