<svg width="50" height="50" viewBox="0 0 50 50" fill="none" xmlns="http://www.w3.org/2000/svg">
<g id="Frame 2">
<g id="Action bar icons">
<path id="Vector" d="M29.5 20C30.3284 20 31 19.3284 31 18.5C31 17.6716 30.3284 17 29.5 17C28.6716 17 28 17.6716 28 18.5C28 19.3284 28.6716 20 29.5 20Z" fill="white"/>
<path id="Vector_2" d="M35.3328 18.1093C34.8693 16.9287 34.0697 15.91 33.0329 15.1796C31.9961 14.4491 30.7677 14.039 29.5 14C28.2323 14.039 27.0039 14.4491 25.9671 15.1796C24.9303 15.91 24.1307 16.9287 23.6672 18.1093L23.5 18.5L23.6672 18.8915C24.1308 20.0719 24.9305 21.0904 25.9673 21.8207C27.0041 22.551 28.2324 22.9611 29.5 23C30.7676 22.9611 31.9959 22.551 33.0327 21.8207C34.0695 21.0904 34.8692 20.0719 35.3328 18.8915L35.5 18.5L35.3328 18.1093ZM29.5 21.5C28.9067 21.5 28.3266 21.3241 27.8333 20.9944C27.3399 20.6648 26.9554 20.1962 26.7284 19.648C26.5013 19.0999 26.4419 18.4967 26.5576 17.9147C26.6734 17.3328 26.9591 16.7982 27.3787 16.3787C27.7982 15.9591 28.3328 15.6734 28.9147 15.5576C29.4967 15.4419 30.0999 15.5013 30.648 15.7284C31.1962 15.9554 31.6648 16.3399 31.9944 16.8333C32.3241 17.3266 32.5 17.9067 32.5 18.5C32.499 19.2953 32.1826 20.0578 31.6202 20.6202C31.0578 21.1826 30.2953 21.499 29.5 21.5Z" fill="white"/>
<path id="Vector_3" d="M22 21.5H18.25V5.75H20.5V8H29.5V5.75H31.75V12.5H33.25V5.75C33.25 5.35218 33.092 4.97064 32.8107 4.68934C32.5294 4.40804 32.1478 4.25 31.75 4.25H29.5V3.5C29.5 3.10218 29.342 2.72064 29.0607 2.43934C28.7794 2.15804 28.3978 2 28 2H22C21.6022 2 21.2206 2.15804 20.9393 2.43934C20.658 2.72064 20.5 3.10218 20.5 3.5V4.25H18.25C17.8522 4.25 17.4706 4.40804 17.1893 4.68934C16.908 4.97064 16.75 5.35218 16.75 5.75V21.5C16.75 21.8978 16.908 22.2794 17.1893 22.5607C17.4706 22.842 17.8522 23 18.25 23H22V21.5ZM22 3.5H28V6.5H22V3.5Z" fill="white"/>
</g>
<path id="T&#195;&#162;ches" d="M0.497159 38.093V36.3182H8.85938V38.093H5.74219V46.5H3.61435V38.093H0.497159ZM11.3352 46.6442C10.848 46.6442 10.4138 46.5597 10.0327 46.3906C9.65152 46.2183 9.34991 45.9647 9.12784 45.63C8.90909 45.2919 8.79972 44.871 8.79972 44.3672C8.79972 43.9429 8.8776 43.5866 9.03338 43.2983C9.18916 43.0099 9.40128 42.7779 9.66974 42.6023C9.93821 42.4266 10.2431 42.294 10.5845 42.2045C10.9292 42.1151 11.2905 42.0521 11.6683 42.0156C12.1125 41.9692 12.4704 41.9261 12.7422 41.8864C13.014 41.8433 13.2112 41.7803 13.3338 41.6974C13.4564 41.6146 13.5178 41.492 13.5178 41.3295V41.2997C13.5178 40.9848 13.4183 40.7412 13.2195 40.5689C13.0239 40.3965 12.7455 40.3104 12.3842 40.3104C12.0031 40.3104 11.6998 40.3949 11.4744 40.5639C11.2491 40.7296 11.0999 40.9384 11.027 41.1903L9.06818 41.0312C9.16761 40.5672 9.36316 40.1662 9.65483 39.8281C9.9465 39.4867 10.3227 39.2249 10.7834 39.0426C11.2474 38.857 11.7843 38.7642 12.3942 38.7642C12.8184 38.7642 13.2244 38.8139 13.6122 38.9134C14.0033 39.0128 14.3497 39.1669 14.6513 39.3757C14.9562 39.5845 15.1965 39.853 15.3722 40.1811C15.5478 40.5059 15.6357 40.8954 15.6357 41.3494V46.5H13.6271V45.4411H13.5675C13.4448 45.6797 13.2808 45.8902 13.0753 46.0724C12.8698 46.2514 12.6229 46.3923 12.3345 46.495C12.0462 46.5945 11.7131 46.6442 11.3352 46.6442ZM11.9418 45.1825C12.2533 45.1825 12.5284 45.1212 12.767 44.9986C13.0057 44.8726 13.1929 44.7036 13.3288 44.4915C13.4647 44.2794 13.5327 44.0391 13.5327 43.7706V42.9602C13.4664 43.0033 13.3752 43.0431 13.2592 43.0795C13.1465 43.1127 13.0189 43.1442 12.8764 43.174C12.7339 43.2005 12.5914 43.2254 12.4489 43.2486C12.3063 43.2685 12.1771 43.2867 12.0611 43.3033C11.8125 43.3397 11.5954 43.3977 11.4098 43.4773C11.2242 43.5568 11.08 43.6645 10.9773 43.8004C10.8745 43.933 10.8232 44.0987 10.8232 44.2976C10.8232 44.5859 10.9276 44.8063 11.1364 44.9588C11.3485 45.108 11.617 45.1825 11.9418 45.1825ZM13.473 37.9489L12.4737 36.7358L11.4744 37.9489H9.66974V37.8793L11.6832 35.6918H13.2592L15.2777 37.8793V37.9489H13.473ZM20.729 46.6491C19.9469 46.6491 19.274 46.4834 18.7106 46.152C18.1504 45.8172 17.7196 45.3532 17.418 44.7599C17.1197 44.1667 16.9705 43.4839 16.9705 42.7116C16.9705 41.9295 17.1213 41.2434 17.4229 40.6534C17.7279 40.0601 18.1604 39.5978 18.7205 39.2663C19.2807 38.9316 19.9469 38.7642 20.7191 38.7642C21.3853 38.7642 21.9686 38.8852 22.4691 39.1271C22.9696 39.3691 23.3656 39.7088 23.6573 40.1463C23.949 40.5838 24.1097 41.0975 24.1396 41.6875H22.141C22.0846 41.3063 21.9355 40.9998 21.6935 40.7678C21.4549 40.5324 21.1417 40.4148 20.7539 40.4148C20.4258 40.4148 20.1391 40.5043 19.8938 40.6832C19.6519 40.8589 19.4629 41.1158 19.3271 41.4538C19.1912 41.7919 19.1232 42.2012 19.1232 42.6818C19.1232 43.169 19.1895 43.5833 19.3221 43.9247C19.458 44.2661 19.6486 44.5263 19.8938 44.7053C20.1391 44.8842 20.4258 44.9737 20.7539 44.9737C20.9959 44.9737 21.213 44.924 21.4052 44.8246C21.6007 44.7251 21.7615 44.581 21.8874 44.392C22.0167 44.1998 22.1012 43.9695 22.141 43.701H24.1396C24.1064 44.2843 23.9473 44.7981 23.6623 45.2422C23.3806 45.683 22.9911 46.0277 22.494 46.2763C21.9968 46.5249 21.4085 46.6491 20.729 46.6491ZM27.6135 42.0852V46.5H25.4956V36.3182H27.5538V40.2109H27.6433C27.8156 39.7602 28.094 39.4072 28.4785 39.152C28.863 38.8935 29.3452 38.7642 29.9252 38.7642C30.4556 38.7642 30.9179 38.8802 31.3123 39.1122C31.7101 39.3409 32.0183 39.6707 32.237 40.1016C32.4591 40.5291 32.5685 41.0412 32.5652 41.6378V46.5H30.4473V42.0156C30.4506 41.545 30.3313 41.1787 30.0893 40.9169C29.8507 40.6551 29.5159 40.5241 29.085 40.5241C28.7967 40.5241 28.5415 40.5855 28.3194 40.7081C28.1007 40.8307 27.9283 41.0097 27.8024 41.245C27.6797 41.477 27.6168 41.7571 27.6135 42.0852ZM37.712 46.6491C36.9265 46.6491 36.2504 46.4901 35.6836 46.1719C35.1201 45.8504 34.686 45.3963 34.381 44.8097C34.0761 44.2197 33.9237 43.522 33.9237 42.7166C33.9237 41.9311 34.0761 41.2417 34.381 40.6484C34.686 40.0552 35.1152 39.5928 35.6687 39.2614C36.2255 38.9299 36.8784 38.7642 37.6275 38.7642C38.1313 38.7642 38.6003 38.8454 39.0344 39.0078C39.4719 39.1669 39.8531 39.4072 40.1779 39.7287C40.506 40.0502 40.7612 40.4545 40.9435 40.9418C41.1258 41.4257 41.217 41.9924 41.217 42.642V43.2237H34.7688V41.9112H39.2234C39.2234 41.6063 39.1571 41.3362 39.0245 41.1009C38.8919 40.8655 38.708 40.6816 38.4727 40.549C38.2406 40.4131 37.9705 40.3452 37.6623 40.3452C37.3408 40.3452 37.0558 40.4197 36.8072 40.5689C36.5619 40.7147 36.3697 40.9119 36.2305 41.1605C36.0913 41.4058 36.02 41.6792 36.0167 41.9808V43.2287C36.0167 43.6065 36.0863 43.933 36.2255 44.2081C36.368 44.4832 36.5685 44.6953 36.8271 44.8445C37.0856 44.9936 37.3922 45.0682 37.7468 45.0682C37.9821 45.0682 38.1976 45.035 38.3931 44.9688C38.5887 44.9025 38.756 44.803 38.8952 44.6705C39.0344 44.5379 39.1405 44.3755 39.2134 44.1832L41.1722 44.3125C41.0728 44.7831 40.869 45.1941 40.5607 45.5455C40.2558 45.8935 39.8614 46.1652 39.3775 46.3608C38.8969 46.553 38.3417 46.6491 37.712 46.6491ZM48.9528 41.0412L47.0138 41.1605C46.9807 40.9948 46.9094 40.8456 46.8001 40.7131C46.6907 40.5772 46.5465 40.4695 46.3675 40.3899C46.1919 40.3071 45.9814 40.2656 45.7362 40.2656C45.408 40.2656 45.1313 40.3352 44.9059 40.4744C44.6805 40.6103 44.5678 40.7926 44.5678 41.0213C44.5678 41.2036 44.6407 41.3577 44.7866 41.4837C44.9324 41.6096 45.1826 41.7107 45.5373 41.7869L46.9194 42.0653C47.6618 42.2178 48.2153 42.4631 48.5799 42.8011C48.9445 43.1392 49.1268 43.5833 49.1268 44.1335C49.1268 44.634 48.9793 45.0732 48.6843 45.451C48.3926 45.8288 47.9916 46.1238 47.4812 46.3359C46.9741 46.5447 46.3891 46.6491 45.7262 46.6491C44.7153 46.6491 43.9099 46.4387 43.31 46.0178C42.7134 45.5935 42.3638 45.0168 42.261 44.2876L44.3441 44.1783C44.4071 44.4865 44.5595 44.7218 44.8015 44.8842C45.0434 45.0433 45.3533 45.1229 45.7312 45.1229C46.1024 45.1229 46.4007 45.0516 46.6261 44.9091C46.8548 44.7633 46.9708 44.576 46.9741 44.3473C46.9708 44.1551 46.8896 43.9976 46.7305 43.875C46.5714 43.7491 46.3261 43.6529 45.9947 43.5866L44.6722 43.3232C43.9265 43.174 43.3713 42.9155 43.0067 42.5476C42.6455 42.1797 42.4648 41.7107 42.4648 41.1406C42.4648 40.6501 42.5974 40.2275 42.8626 39.8729C43.131 39.5182 43.5072 39.2448 43.9911 39.0526C44.4783 38.8603 45.0484 38.7642 45.7013 38.7642C46.6658 38.7642 47.4248 38.968 47.9783 39.3757C48.5352 39.7834 48.86 40.3385 48.9528 41.0412Z" fill="white"/>
</g>
</svg>
