<svg width="57" height="57" viewBox="0 0 57 57" fill="none" xmlns="http://www.w3.org/2000/svg">
<g clip-path="url(#clip0_37_335)">
<path d="M31.3506 25.65H42.7506V31.35H31.3506V42.75H25.6506V31.35H14.2506V25.65H25.6506V14.25H31.3506V25.65ZM28.5006 57C20.9419 57 13.6929 53.9973 8.34807 48.6525C3.00328 43.3078 0.000610352 36.0587 0.000610352 28.5C0.000610352 20.9413 3.00328 13.6922 8.34807 8.34746C13.6929 3.00267 20.9419 0 28.5006 0C36.0593 0 43.3084 3.00267 48.6532 8.34746C53.9979 13.6922 57.0006 20.9413 57.0006 28.5C57.0006 36.0587 53.9979 43.3078 48.6532 48.6525C43.3084 53.9973 36.0593 57 28.5006 57ZM28.5006 51.3C34.5475 51.3 40.3468 48.8979 44.6226 44.622C48.8985 40.3462 51.3006 34.5469 51.3006 28.5C51.3006 22.4531 48.8985 16.6538 44.6226 12.378C40.3468 8.10214 34.5475 5.7 28.5006 5.7C22.4537 5.7 16.6544 8.10214 12.3786 12.378C8.10275 16.6538 5.70061 22.4531 5.70061 28.5C5.70061 34.5469 8.10275 40.3462 12.3786 44.622C16.6544 48.8979 22.4537 51.3 28.5006 51.3Z" fill="#35BAAC"/>
</g>
<defs>
<clipPath id="clip0_37_335">
<rect width="57" height="57" fill="white" transform="translate(0.000610352)"/>
</clipPath>
</defs>
</svg>
